ffmpeg started on 2025-07-07 at 19:32:12
Report written to "D:\Convert\FFMetrics\reports\psnr_report-6.txt"
Log level: 32
Command line:
ffmpeg -hide_banner -nostdin -i "D:\\\xc0\xed\xe8\xec\xe5\\[\xd2\xee\xef-5]\\Fate\\\xc1\xe5\xf1\xea\xee\xed\xe5\xf7\xed\xfb\xf5 \xea\xeb\xe8\xed\xea\xee\xe2 \xea\xf0\xe0\xe9\\Fate_UBW [SP]_HEVC.mkv" -i "D:\\\xc0\xed\xe8\xec\xe5\\[\xd2\xee\xef-5]\\Fate\\\xc1\xe5\xf1\xea\xee\xed\xe5\xf7\xed\xfb\xf5 \xea\xeb\xe8\xed\xea\xee\xe2 \xea\xf0\xe0\xe9\\Fate_UBW [SP].mp4" -lavfi "[0:v]settb=AVTB,setpts=PTS-STARTPTS,format=pix_fmts=yuv420p10,fps=25/1,scale=1280:720:flags=bicubic[main];[1:v]settb=AVTB,setpts=PTS-STARTPTS,format=pix_fmts=yuv420p,fps=25/1,scale=1280:720:flags=bicubic[ref];[main][ref]psnr=eof_action=endall:stats_file='D\\:/Convert/FFMetrics/logs/psnr_logfile-6.txt'" -f null -
Input #0, matroska,webm, from 'D:\Аниме\[Топ-5]\Fate\Бесконечных клинков край\Fate_UBW [SP]_HEVC.mkv':
  Metadata:
    COMPATIBLE_BRANDS: isomiso2avc1mp41
    MAJOR_BRAND     : isom
    MINOR_VERSION   : 512
    ENCODER         : Lavf61.7.100
  Duration: 00:09:43.86, start: -0.021000, bitrate: 658 kb/s
  Stream #0:0: Video: hevc (Main 10), yuv420p10le(tv, bt709, progressive), 1280x720 [SAR 1:1 DAR 16:9], 25 fps, 25 tbr, 1k tbn (default)
      Metadata:
        HANDLER_NAME    : VideoHandler
        VENDOR_ID       : [0][0][0][0]
        ENCODER         : Lavc61.19.100 libx265
        BPS             : 461987
        DURATION        : 00:09:43.800000000
        NUMBER_OF_FRAMES: 14595
        NUMBER_OF_BYTES : 33713573
        _STATISTICS_WRITING_APP: mkvpropedit v66.0.0 ('Josie') 64-bit
        _STATISTICS_WRITING_DATE_UTC: 2025-07-07 16:24:41
        _STATISTICS_TAGS: BPS DURATION NUMBER_OF_FRAMES NUMBER_OF_BYTES
  Stream #0:1(rus): Audio: aac (LC), 48000 Hz, stereo, fltp (default)
      Metadata:
        HANDLER_NAME    : SoundHandler
        VENDOR_ID       : [0][0][0][0]
        ENCODER         : Lavc61.19.100 aac
        BPS             : 192948
        DURATION        : 00:09:43.850000000
        NUMBER_OF_FRAMES: 27369
        NUMBER_OF_BYTES : 14081621
        _STATISTICS_WRITING_APP: mkvpropedit v66.0.0 ('Josie') 64-bit
        _STATISTICS_WRITING_DATE_UTC: 2025-07-07 16:24:41
        _STATISTICS_TAGS: BPS DURATION NUMBER_OF_FRAMES NUMBER_OF_BYTES
Input #1, mov,mp4,m4a,3gp,3g2,mj2, from 'D:\Аниме\[Топ-5]\Fate\Бесконечных клинков край\Fate_UBW [SP].mp4':
  Metadata:
    major_brand     : isom
    minor_version   : 512
    compatible_brands: isomiso2avc1mp41
    encoder         : Lavf57.41.100
  Duration: 00:09:43.83, start: 0.000000, bitrate: 2763 kb/s
  Stream #1:0[0x1](und): Video: h264 (High) (avc1 / 0x31637661), yuv420p(progressive), 1280x720 [SAR 1:1 DAR 16:9], 2627 kb/s, 25 fps, 25 tbr, 12800 tbn (default)
      Metadata:
        handler_name    : VideoHandler
        vendor_id       : [0][0][0][0]
  Stream #1:1[0x2](rus): Audio: aac (LC) (mp4a / 0x6134706D), 44100 Hz, stereo, fltp, 128 kb/s (default)
      Metadata:
        handler_name    : SoundHandler
        vendor_id       : [0][0][0][0]
Stream mapping:
  Stream #0:0 (hevc) -> settb:default
  Stream #1:0 (h264) -> settb:default
  psnr:default -> Stream #0:0 (wrapped_avframe)
  Stream #0:1 -> #0:1 (aac (native) -> pcm_s16le (native))
[swscaler @ 0000022d4b20a200] No accelerated colorspace conversion found from yuv420p to bgr48le.
[swscaler @ 0000022d4b2f71c0] No accelerated colorspace conversion found from yuv420p to bgr48le.
[swscaler @ 0000022d4b502780] No accelerated colorspace conversion found from yuv420p to bgr48le.
[swscaler @ 0000022d4b567ec0] No accelerated colorspace conversion found from yuv420p to bgr48le.
[swscaler @ 0000022d4b6bee00] No accelerated colorspace conversion found from yuv420p to bgr48le.
[swscaler @ 0000022d4b820e80] No accelerated colorspace conversion found from yuv420p to bgr48le.
[swscaler @ 0000022d4b8f4280] No accelerated colorspace conversion found from yuv420p to bgr48le.
[swscaler @ 0000022d4ba05040] No accelerated colorspace conversion found from yuv420p to bgr48le.
[swscaler @ 0000022d4ba72740] No accelerated colorspace conversion found from yuv420p to bgr48le.
[swscaler @ 0000022d4bb0a040] No accelerated colorspace conversion found from yuv420p to bgr48le.
[swscaler @ 0000022d4bb67040] No accelerated colorspace conversion found from yuv420p to bgr48le.
[swscaler @ 0000022d4bbcf040] No accelerated colorspace conversion found from yuv420p to bgr48le.
[swscaler @ 0000022d4bc2a040] No accelerated colorspace conversion found from yuv420p to bgr48le.
[swscaler @ 0000022d4bcb2040] No accelerated colorspace conversion found from yuv420p to bgr48le.
[swscaler @ 0000022d4bd1e040] No accelerated colorspace conversion found from yuv420p to bgr48le.
[swscaler @ 0000022d4bd8b840] No accelerated colorspace conversion found from yuv420p to bgr48le.
Output #0, null, to 'pipe:':
  Metadata:
    COMPATIBLE_BRANDS: isomiso2avc1mp41
    MAJOR_BRAND     : isom
    MINOR_VERSION   : 512
    encoder         : Lavf61.7.100
  Stream #0:0: Video: wrapped_avframe, yuv420p10le(tv, bt709, progressive), 1280x720 [SAR 1:1 DAR 16:9], q=2-31, 200 kb/s, 25 fps, 25 tbn
      Metadata:
        encoder         : Lavc61.19.100 wrapped_avframe
  Stream #0:1(rus): Audio: pcm_s16le, 48000 Hz, stereo, s16, 1536 kb/s (default)
      Metadata:
        HANDLER_NAME    : SoundHandler
        VENDOR_ID       : [0][0][0][0]
        _STATISTICS_TAGS: BPS DURATION NUMBER_OF_FRAMES NUMBER_OF_BYTES
        BPS             : 192948
        DURATION        : 00:09:43.850000000
        NUMBER_OF_FRAMES: 27369
        NUMBER_OF_BYTES : 14081621
        _STATISTICS_WRITING_APP: mkvpropedit v66.0.0 ('Josie') 64-bit
        _STATISTICS_WRITING_DATE_UTC: 2025-07-07 16:24:41
        encoder         : Lavc61.19.100 pcm_s16le
frame=   89 fps=0.0 q=-0.0 size=N/A time=00:00:03.56 bitrate=N/A speed=6.87x    frame=  182 fps=177 q=-0.0 size=N/A time=00:00:07.28 bitrate=N/A speed=7.07x    frame=  285 fps=185 q=-0.0 size=N/A time=00:00:11.40 bitrate=N/A speed=7.41x    frame=  380 fps=184 q=-0.0 size=N/A time=00:00:15.20 bitrate=N/A speed=7.35x    frame=  482 fps=187 q=-0.0 size=N/A time=00:00:19.28 bitrate=N/A speed=7.48x    frame=  579 fps=187 q=-0.0 size=N/A time=00:00:23.16 bitrate=N/A speed= 7.5x    frame=  681 fps=188 q=-0.0 size=N/A time=00:00:27.24 bitrate=N/A speed=7.53x    frame=  774 fps=188 q=-0.0 size=N/A time=00:00:30.96 bitrate=N/A speed=7.51x    frame=  867 fps=187 q=-0.0 size=N/A time=00:00:34.68 bitrate=N/A speed=7.48x    frame=  975 fps=189 q=-0.0 size=N/A time=00:00:39.00 bitrate=N/A speed=7.56x    frame= 1074 fps=189 q=-0.0 size=N/A time=00:00:42.96 bitrate=N/A speed=7.57x    frame= 1168 fps=189 q=-0.0 size=N/A time=00:00:46.72 bitrate=N/A speed=7.56x    frame= 1264 fps=189 q=-0.0 size=N/A time=00:00:50.56 bitrate=N/A speed=7.54x    frame= 1361 fps=189 q=-0.0 size=N/A time=00:00:54.44 bitrate=N/A speed=7.55x    frame= 1460 fps=189 q=-0.0 size=N/A time=00:00:58.40 bitrate=N/A speed=7.55x    frame= 1553 fps=188 q=-0.0 size=N/A time=00:01:02.12 bitrate=N/A speed=7.53x    frame= 1653 fps=189 q=-0.0 size=N/A time=00:01:06.12 bitrate=N/A speed=7.55x    frame= 1755 fps=189 q=-0.0 size=N/A time=00:01:10.20 bitrate=N/A speed=7.56x    frame= 1854 fps=189 q=-0.0 size=N/A time=00:01:14.16 bitrate=N/A speed=7.57x    frame= 1953 fps=189 q=-0.0 size=N/A time=00:01:18.12 bitrate=N/A speed=7.57x    frame= 2054 fps=190 q=-0.0 size=N/A time=00:01:22.16 bitrate=N/A speed=7.59x    frame= 2145 fps=189 q=-0.0 size=N/A time=00:01:25.80 bitrate=N/A speed=7.57x    frame= 2247 fps=189 q=-0.0 size=N/A time=00:01:29.88 bitrate=N/A speed=7.57x    frame= 2348 fps=190 q=-0.0 size=N/A time=00:01:33.92 bitrate=N/A speed=7.59x    frame= 2448 fps=190 q=-0.0 size=N/A time=00:01:37.92 bitrate=N/A speed= 7.6x    frame= 2550 fps=190 q=-0.0 size=N/A time=00:01:42.00 bitrate=N/A speed=7.61x    frame= 2649 fps=190 q=-0.0 size=N/A time=00:01:45.96 bitrate=N/A speed=7.61x    frame= 2747 fps=190 q=-0.0 size=N/A time=00:01:49.88 bitrate=N/A speed=7.61x    frame= 2851 fps=191 q=-0.0 size=N/A time=00:01:54.04 bitrate=N/A speed=7.62x    frame= 2951 fps=191 q=-0.0 size=N/A time=00:01:58.04 bitrate=N/A speed=7.63x    frame= 3049 fps=191 q=-0.0 size=N/A time=00:02:01.96 bitrate=N/A speed=7.63x    frame= 3145 fps=191 q=-0.0 size=N/A time=00:02:05.80 bitrate=N/A speed=7.63x    frame= 3247 fps=191 q=-0.0 size=N/A time=00:02:09.88 bitrate=N/A speed=7.63x    frame= 3353 fps=191 q=-0.0 size=N/A time=00:02:14.12 bitrate=N/A speed=7.65x    frame= 3453 fps=191 q=-0.0 size=N/A time=00:02:18.12 bitrate=N/A speed=7.66x    frame= 3550 fps=191 q=-0.0 size=N/A time=00:02:22.00 bitrate=N/A speed=7.65x    frame= 3642 fps=191 q=-0.0 size=N/A time=00:02:25.68 bitrate=N/A speed=7.64x    frame= 3748 fps=191 q=-0.0 size=N/A time=00:02:29.92 bitrate=N/A speed=7.65x    frame= 3852 fps=192 q=-0.0 size=N/A time=00:02:34.08 bitrate=N/A speed=7.66x    frame= 3948 fps=191 q=-0.0 size=N/A time=00:02:37.92 bitrate=N/A speed=7.66x    frame= 4035 fps=191 q=-0.0 size=N/A time=00:02:41.40 bitrate=N/A speed=7.64x    frame= 4140 fps=191 q=-0.0 size=N/A time=00:02:45.60 bitrate=N/A speed=7.65x    frame= 4239 fps=191 q=-0.0 size=N/A time=00:02:49.56 bitrate=N/A speed=7.65x    frame= 4343 fps=191 q=-0.0 size=N/A time=00:02:53.72 bitrate=N/A speed=7.65x    frame= 4449 fps=192 q=-0.0 size=N/A time=00:02:57.96 bitrate=N/A speed=7.66x    frame= 4541 fps=191 q=-0.0 size=N/A time=00:03:01.64 bitrate=N/A speed=7.66x    frame= 4636 fps=191 q=-0.0 size=N/A time=00:03:05.44 bitrate=N/A speed=7.65x    frame= 4731 fps=191 q=-0.0 size=N/A time=00:03:09.24 bitrate=N/A speed=7.64x    frame= 4817 fps=190 q=-0.0 size=N/A time=00:03:12.68 bitrate=N/A speed=7.62x    frame= 4924 fps=191 q=-0.0 size=N/A time=00:03:16.96 bitrate=N/A speed=7.63x    frame= 5016 fps=191 q=-0.0 size=N/A time=00:03:20.64 bitrate=N/A speed=7.62x    frame= 5109 fps=190 q=-0.0 size=N/A time=00:03:24.36 bitrate=N/A speed=7.61x    frame= 5203 fps=190 q=-0.0 size=N/A time=00:03:28.12 bitrate=N/A speed=7.61x    frame= 5292 fps=190 q=-0.0 size=N/A time=00:03:31.68 bitrate=N/A speed=7.59x    frame= 5394 fps=190 q=-0.0 size=N/A time=00:03:35.76 bitrate=N/A speed= 7.6x    frame= 5487 fps=190 q=-0.0 size=N/A time=00:03:39.48 bitrate=N/A speed=7.59x    frame= 5578 fps=190 q=-0.0 size=N/A time=00:03:43.12 bitrate=N/A speed=7.58x    frame= 5669 fps=189 q=-0.0 size=N/A time=00:03:46.76 bitrate=N/A speed=7.58x    frame= 5761 fps=189 q=-0.0 size=N/A time=00:03:50.44 bitrate=N/A speed=7.57x    frame= 5857 fps=189 q=-0.0 size=N/A time=00:03:54.28 bitrate=N/A speed=7.56x    frame= 5945 fps=189 q=-0.0 size=N/A time=00:03:57.80 bitrate=N/A speed=7.55x    frame= 6031 fps=188 q=-0.0 size=N/A time=00:04:01.24 bitrate=N/A speed=7.54x    frame= 6126 fps=188 q=-0.0 size=N/A time=00:04:05.04 bitrate=N/A speed=7.54x    frame= 6223 fps=188 q=-0.0 size=N/A time=00:04:08.92 bitrate=N/A speed=7.53x    frame= 6311 fps=188 q=-0.0 size=N/A time=00:04:12.44 bitrate=N/A speed=7.52x    frame= 6406 fps=188 q=-0.0 size=N/A time=00:04:16.24 bitrate=N/A speed=7.52x    frame= 6505 fps=188 q=-0.0 size=N/A time=00:04:20.20 bitrate=N/A speed=7.52x    frame= 6601 fps=188 q=-0.0 size=N/A time=00:04:24.04 bitrate=N/A speed=7.52x    frame= 6699 fps=188 q=-0.0 size=N/A time=00:04:27.96 bitrate=N/A speed=7.52x    frame= 6800 fps=188 q=-0.0 size=N/A time=00:04:32.00 bitrate=N/A speed=7.52x    frame= 6891 fps=188 q=-0.0 size=N/A time=00:04:35.64 bitrate=N/A speed=7.52x    frame= 6983 fps=188 q=-0.0 size=N/A time=00:04:39.32 bitrate=N/A speed=7.52x    frame= 7067 fps=188 q=-0.0 size=N/A time=00:04:42.68 bitrate=N/A speed= 7.5x    frame= 7157 fps=187 q=-0.0 size=N/A time=00:04:46.28 bitrate=N/A speed=7.49x    frame= 7258 fps=187 q=-0.0 size=N/A time=00:04:50.32 bitrate=N/A speed= 7.5x    frame= 7361 fps=188 q=-0.0 size=N/A time=00:04:54.44 bitrate=N/A speed= 7.5x    frame= 7454 fps=188 q=-0.0 size=N/A time=00:04:58.16 bitrate=N/A speed= 7.5x    frame= 7557 fps=188 q=-0.0 size=N/A time=00:05:02.28 bitrate=N/A speed=7.51x    frame= 7645 fps=187 q=-0.0 size=N/A time=00:05:05.80 bitrate=N/A speed= 7.5x    frame= 7755 fps=188 q=-0.0 size=N/A time=00:05:10.20 bitrate=N/A speed=7.51x    frame= 7850 fps=188 q=-0.0 size=N/A time=00:05:14.00 bitrate=N/A speed=7.51x    frame= 7951 fps=188 q=-0.0 size=N/A time=00:05:18.04 bitrate=N/A speed=7.51x    frame= 8047 fps=188 q=-0.0 size=N/A time=00:05:21.88 bitrate=N/A speed=7.51x    frame= 8144 fps=188 q=-0.0 size=N/A time=00:05:25.76 bitrate=N/A speed=7.51x    frame= 8245 fps=188 q=-0.0 size=N/A time=00:05:29.80 bitrate=N/A speed=7.52x    frame= 8344 fps=188 q=-0.0 size=N/A time=00:05:33.76 bitrate=N/A speed=7.52x    frame= 8452 fps=188 q=-0.0 size=N/A time=00:05:38.08 bitrate=N/A speed=7.53x    frame= 8552 fps=188 q=-0.0 size=N/A time=00:05:42.08 bitrate=N/A speed=7.53x    frame= 8649 fps=188 q=-0.0 size=N/A time=00:05:45.96 bitrate=N/A speed=7.53x    frame= 8751 fps=188 q=-0.0 size=N/A time=00:05:50.04 bitrate=N/A speed=7.54x    frame= 8849 fps=188 q=-0.0 size=N/A time=00:05:53.96 bitrate=N/A speed=7.54x    frame= 8952 fps=189 q=-0.0 size=N/A time=00:05:58.08 bitrate=N/A speed=7.54x    frame= 9037 fps=188 q=-0.0 size=N/A time=00:06:01.48 bitrate=N/A speed=7.53x    frame= 9142 fps=188 q=-0.0 size=N/A time=00:06:05.68 bitrate=N/A speed=7.54x    frame= 9241 fps=188 q=-0.0 size=N/A time=00:06:09.64 bitrate=N/A speed=7.54x    frame= 9339 fps=188 q=-0.0 size=N/A time=00:06:13.56 bitrate=N/A speed=7.54x    frame= 9440 fps=189 q=-0.0 size=N/A time=00:06:17.60 bitrate=N/A speed=7.54x    frame= 9539 fps=189 q=-0.0 size=N/A time=00:06:21.56 bitrate=N/A speed=7.54x    frame= 9643 fps=189 q=-0.0 size=N/A time=00:06:25.72 bitrate=N/A speed=7.55x    frame= 9742 fps=189 q=-0.0 size=N/A time=00:06:29.68 bitrate=N/A speed=7.55x    frame= 9844 fps=189 q=-0.0 size=N/A time=00:06:33.76 bitrate=N/A speed=7.55x    frame= 9945 fps=189 q=-0.0 size=N/A time=00:06:37.80 bitrate=N/A speed=7.56x    frame=10037 fps=189 q=-0.0 size=N/A time=00:06:41.48 bitrate=N/A speed=7.55x    frame=10147 fps=189 q=-0.0 size=N/A time=00:06:45.88 bitrate=N/A speed=7.56x    frame=10248 fps=189 q=-0.0 size=N/A time=00:06:49.92 bitrate=N/A speed=7.56x    frame=10346 fps=189 q=-0.0 size=N/A time=00:06:53.84 bitrate=N/A speed=7.57x    frame=10448 fps=189 q=-0.0 size=N/A time=00:06:57.92 bitrate=N/A speed=7.57x    frame=10550 fps=189 q=-0.0 size=N/A time=00:07:02.00 bitrate=N/A speed=7.57x    frame=10646 fps=189 q=-0.0 size=N/A time=00:07:05.84 bitrate=N/A speed=7.57x    frame=10748 fps=189 q=-0.0 size=N/A time=00:07:09.92 bitrate=N/A speed=7.57x    frame=10855 fps=190 q=-0.0 size=N/A time=00:07:14.20 bitrate=N/A speed=7.58x    frame=10960 fps=190 q=-0.0 size=N/A time=00:07:18.40 bitrate=N/A speed=7.58x    frame=11060 fps=190 q=-0.0 size=N/A time=00:07:22.40 bitrate=N/A speed=7.59x    frame=11160 fps=190 q=-0.0 size=N/A time=00:07:26.40 bitrate=N/A speed=7.59x    frame=11263 fps=190 q=-0.0 size=N/A time=00:07:30.52 bitrate=N/A speed=7.59x    frame=11365 fps=190 q=-0.0 size=N/A time=00:07:34.60 bitrate=N/A speed=7.59x    frame=11463 fps=190 q=-0.0 size=N/A time=00:07:38.52 bitrate=N/A speed=7.59x    frame=11566 fps=190 q=-0.0 size=N/A time=00:07:42.64 bitrate=N/A speed= 7.6x    frame=11669 fps=190 q=-0.0 size=N/A time=00:07:46.76 bitrate=N/A speed= 7.6x    frame=11772 fps=190 q=-0.0 size=N/A time=00:07:50.88 bitrate=N/A speed= 7.6x    frame=11873 fps=190 q=-0.0 size=N/A time=00:07:54.92 bitrate=N/A speed= 7.6x    frame=11973 fps=190 q=-0.0 size=N/A time=00:07:58.92 bitrate=N/A speed=7.61x    frame=12078 fps=190 q=-0.0 size=N/A time=00:08:03.12 bitrate=N/A speed=7.61x    frame=12177 fps=190 q=-0.0 size=N/A time=00:08:07.08 bitrate=N/A speed=7.61x    frame=12280 fps=190 q=-0.0 size=N/A time=00:08:11.20 bitrate=N/A speed=7.61x    frame=12375 fps=190 q=-0.0 size=N/A time=00:08:15.00 bitrate=N/A speed=7.61x    frame=12481 fps=190 q=-0.0 size=N/A time=00:08:19.24 bitrate=N/A speed=7.62x    frame=12583 fps=190 q=-0.0 size=N/A time=00:08:23.32 bitrate=N/A speed=7.62x    frame=12685 fps=191 q=-0.0 size=N/A time=00:08:27.40 bitrate=N/A speed=7.62x    frame=12784 fps=191 q=-0.0 size=N/A time=00:08:31.36 bitrate=N/A speed=7.62x    frame=12886 fps=191 q=-0.0 size=N/A time=00:08:35.44 bitrate=N/A speed=7.62x    frame=12990 fps=191 q=-0.0 size=N/A time=00:08:39.60 bitrate=N/A speed=7.63x    frame=13082 fps=191 q=-0.0 size=N/A time=00:08:43.28 bitrate=N/A speed=7.62x    frame=13185 fps=191 q=-0.0 size=N/A time=00:08:47.40 bitrate=N/A speed=7.63x    frame=13278 fps=191 q=-0.0 size=N/A time=00:08:51.12 bitrate=N/A speed=7.62x    frame=13381 fps=191 q=-0.0 size=N/A time=00:08:55.24 bitrate=N/A speed=7.63x    frame=13480 fps=191 q=-0.0 size=N/A time=00:08:59.20 bitrate=N/A speed=7.63x    frame=13576 fps=191 q=-0.0 size=N/A time=00:09:03.04 bitrate=N/A speed=7.63x    frame=13671 fps=191 q=-0.0 size=N/A time=00:09:06.84 bitrate=N/A speed=7.62x    frame=13762 fps=190 q=-0.0 size=N/A time=00:09:10.48 bitrate=N/A speed=7.62x    frame=13862 fps=191 q=-0.0 size=N/A time=00:09:14.48 bitrate=N/A speed=7.62x    frame=13965 fps=191 q=-0.0 size=N/A time=00:09:18.60 bitrate=N/A speed=7.62x    frame=14064 fps=191 q=-0.0 size=N/A time=00:09:22.56 bitrate=N/A speed=7.62x    frame=14156 fps=190 q=-0.0 size=N/A time=00:09:26.24 bitrate=N/A speed=7.62x    frame=14252 fps=190 q=-0.0 size=N/A time=00:09:30.08 bitrate=N/A speed=7.62x    frame=14361 fps=191 q=-0.0 size=N/A time=00:09:34.44 bitrate=N/A speed=7.62x    frame=14468 fps=191 q=-0.0 size=N/A time=00:09:38.72 bitrate=N/A speed=7.63x    frame=14569 fps=191 q=-0.0 size=N/A time=00:09:42.76 bitrate=N/A speed=7.63x    [Parsed_psnr_10 @ 0000022d4a94c6c0] PSNR y:45.571931 u:49.794838 v:49.465793 average:46.553584 min:40.030950 max:inf
[out#0/null @ 0000022d3f0feec0] video:6271KiB audio:109476KiB subtitle:0KiB other streams:0KiB global headers:0KiB muxing overhead: unknown
frame=14595 fps=191 q=-0.0 Lsize=N/A time=00:09:43.80 bitrate=N/A speed=7.63x    
